<?xml version="1.0" encoding="UTF-8" standalone="no"?>
<svg
   version="1.0"
   width="508.98776pt"
   height="511.06235pt"
   viewBox="0 0 508.98776 511.06235"
   preserveAspectRatio="xMidYMid"
   id="svg488"
   sodipodi:docname="beam-studio.svg"
   inkscape:version="1.2.2 (b0a8486541, 2022-12-01)"
   xmlns:inkscape="http://www.inkscape.org/namespaces/inkscape"
   xmlns:sodipodi="http://sodipodi.sourceforge.net/DTD/sodipodi-0.dtd"
   xmlns="http://www.w3.org/2000/svg"
   xmlns:svg="http://www.w3.org/2000/svg">
  <defs
     id="defs492" />
  <sodipodi:namedview
     id="namedview490"
     pagecolor="#ffffff"
     bordercolor="#000000"
     borderopacity="0.25"
     inkscape:showpageshadow="2"
     inkscape:pageopacity="0.0"
     inkscape:pagecheckerboard="0"
     inkscape:deskcolor="#d1d1d1"
     inkscape:document-units="pt"
     showgrid="false"
     inkscape:zoom="0.86128284"
     inkscape:cx="339.60969"
     inkscape:cy="340.77075"
     inkscape:window-width="1920"
     inkscape:window-height="1008"
     inkscape:window-x="0"
     inkscape:window-y="0"
     inkscape:window-maximized="1"
     inkscape:current-layer="svg488" />
  <path
     d="m 233.475,1.0063897 c -30.6,4.1 -42.5,6.6 -61.3,13.0000003 -9.6,3.2 -10.6,3.6 -22.7,9 -52.8,23.6 -97.3,66.5 -123,118.4 -8.3,16.8 -8.9,18.2 -13.3,31.1 -4.8,13.6 -8.8,30.5 -11.9,49.9 -1.7,10.8 -1.7,57.5 0,67 0.7,3.8 1.7,9.7 2.3,13 11.2,64.4 50.8,125.1 106.9,163.7 31.6,21.8 70.8,37.2 106.5,41.8 5,0.6 11.7,1.6 15.1,2.1 13.1,2 38.8,1.1 60.9,-2.2 44.7,-6.6 86.8,-25.3 123,-54.7 11.1,-9 29.7,-27.8 38.6,-39.2 28.6,-36.2 45.6,-76 53.1,-124 1.7,-11.4 1.8,-57.6 0,-68.5 -6.4,-39.9 -16.3,-67.4 -35.5,-99.5 -16.6,-27.5 -44,-56.5 -72.3,-76.2 -19,-13.4 -46.8,-27.2 -65.9,-32.9 -28.6,-8.5000003 -57.3,-13.00000026 -80.9,-12.80000026 -7.2,0.1 -16,0.5 -19.6,0.99999996 z m -7.4,109.0000003 c 1.7,1.8 1.9,3.8 2,16 0.1,7.7 0.3,14.1 0.5,14.3 0.2,0.2 4.9,-0.1 10.4,-0.6 11.1,-1.1 34.1,-0.3 41.3,1.3 9.2,2.2 26.6,8.1 32.6,11.1 31.1,15.6 56.5,44.9 67.1,77.3 8.3,25.7 8.5,55.8 0.4,80.8 -3.5,10.9 -3.5,11 -8.4,20.7 -16.7,33.1 -48.4,58.5 -84,67.3 -14.6,3.7 -22,4.7 -33.5,4.7 -35.2,0 -67.7,-13.6 -93.1,-38.9 -20.2,-20.3 -31.9,-43.1 -36.9,-71.9 -1.9,-10.7 -2,-16.4 -2,-95.8 0,-83.1 0,-84.4 2,-86.4 1.9,-1.9 3.3,-2 50.8,-2 48.4,0 48.9,0 50.8,2.1 z"
     id="path476"
     style="fill:#000000;stroke:none;stroke-width:0.1" />
  <path
     d="m 133.475,201.80639 c 0,77.2 0.1,83.5 1.9,92.3 2.1,10.4 7.6,25.9 12.3,34.6 15.5,28.6 44.8,51.5 76.3,59.7 10.6,2.7 22.2,3.8 35.6,3.2 21,-0.9 32.9,-4 51.2,-13.5 33.4,-17.4 56,-48.3 63.3,-86.2 2.1,-11.3 1.8,-32.6 -0.6,-45 -4.8,-23.6 -15.6,-43.8 -32.8,-61.3 -20.8,-21 -44.9,-32.3 -76.2,-35.7 -8.4,-0.9 -12.8,-0.8 -22.3,0.3 -6.4,0.8 -12.4,2 -13.2,2.7 -1.1,0.9 -1.5,3.5 -1.5,10.5 0,10.2 0.7,11.3 5.7,9.4 4.1,-1.5 20.8,-2.5 30.2,-1.7 17.8,1.5 36.1,8.2 49.7,18.4 40.5,30.3 53.1,83.3 30.3,127.4 -13,25 -38.9,45.6 -64.4,50.9 -3.3,0.7 -7.6,1.7 -9.6,2.2 -8.3,2.1 -29,0.7 -42.9,-2.9 -14,-3.6 -30.7,-13.7 -42.6,-25.6 -11.7,-11.7 -19.2,-23.7 -24.3,-38.5 -5,-14.7 -5.1,-15.9 -5.1,-102.9 v -81.2 h -10.5 -10.5 z"
     id="path478"
     style="fill:#000000;stroke:none;stroke-width:0.1" />
  <path
     d="m 165.475,201.40639 c 0,85.5 0,84.9 4.3,98 4.2,12.7 12.9,26.6 22.4,35.6 5.3,5.2 22.1,16.9 24.1,16.9 0.5,0 2.6,0.8 4.8,1.9 8.8,4.2 17.2,5.6 33.4,5.6 15.2,0 24.9,-1.5 31.5,-4.8 4.5,-2.3 5.5,-2.7 6.4,-2.7 1,0 9.8,-5.2 15.1,-9 13.7,-9.6 26.2,-26.8 31.7,-43.5 3.6,-11 4.3,-15.4 4.3,-28.8 0,-16.9 -2.1,-25.4 -9.6,-40.5 -16.6,-32.8 -52.2,-52.3 -88.1,-48.3 -12.2,1.3 -17.2,2.9 -17.9,5.5 -0.3,1.2 -0.4,5.9 -0.2,10.6 0.3,9.7 0,9.4 9.8,6.6 8.4,-2.4 27,-2.2 35.6,0.5 12.2,3.7 20.1,8.5 29.4,17.9 14.3,14.2 20,28 20,48.3 0,6.4 -0.4,12.6 -0.9,13.9 -0.5,1.3 -1.5,4.3 -2.2,6.8 -5.3,18.6 -22.8,36.6 -42.4,43.5 -13,4.6 -32,4.6 -45,0 -9.6,-3.3 -21.3,-11.2 -28.2,-18.9 -7.7,-8.7 -11.7,-16 -15.6,-28.6 -0.8,-2.4 -1.3,-30.5 -1.7,-86 l -0.5,-82.5 -10.2,-0.3 -10.3,-0.3 z"
     id="path480"
     style="fill:#000000;stroke:none;stroke-width:0.1" />
  <path
     d="m 197.275,179.10639 c -0.4,108.7 -0.6,101.2 2.5,109.7 5,13.7 12,22.8 23.1,30 10.3,6.7 19.1,9.3 31.6,9.4 12.5,0.1 21,-2.5 31.6,-9.4 11,-7.1 18,-16.2 22.9,-29.5 2.2,-5.9 2.6,-8.6 2.6,-18.4 0.1,-9.8 -0.3,-12.5 -2.4,-18.2 -6.7,-18.4 -20.7,-31.9 -38.9,-37.5 -12.6,-3.9 -38.1,-0.8 -42,5.1 -1.2,1.8 -1,22.6 0.3,22.6 0.6,0 2.9,-1.3 5.2,-2.8 7.1,-4.8 10.4,-5.7 21.2,-5.7 8.4,0.1 10.8,0.5 14.8,2.4 7,3.5 13.9,10.1 17.7,17.3 3.2,5.9 3.4,6.9 3.5,16.3 0,8.9 -0.3,10.7 -2.7,15.7 -13.6,28.5 -53,29.1 -66.9,1.1 l -3.4,-6.8 -0.5,-80.5 -0.5,-80.5 -9.7,-0.3 -9.8,-0.3 z"
     id="path482"
     style="fill:#000000;stroke:none;stroke-width:0.1" />
  <path
     d="m 247.375,245.30639 c -13.2,4.1 -21.5,17.8 -18.7,30.5 1.6,7.3 6.2,13.9 12.2,17.6 4.1,2.5 6.2,3.1 12.5,3.3 6.8,0.3 8.2,0.1 13.1,-2.5 15.3,-8.1 18.9,-27.6 7.6,-41 -1.5,-1.8 -5.6,-4.6 -9.1,-6.3 -6.7,-3.2 -11.4,-3.6 -17.6,-1.6 z"
     id="path484"
     style="fill:#000000;stroke:none;stroke-width:0.1" />
</svg>
